<svg viewBox="0 0 200 220" xmlns="http://www.w3.org/2000/svg">
  <!-- корпус белый -->
  <rect x="8" y="8" rx="20" ry="20" width="184" height="204" fill="#FFFFFF" stroke="#1b1f2b" stroke-width="3" />
  <rect x="12" y="12" rx="16" ry="16" width="176" height="196" fill="#F5F5F5" stroke="#5a647b" stroke-width="2" />

  <!-- экран -->
  <rect x="30" y="25" rx="10" ry="10" width="140" height="45" fill="#182018" stroke="#7f8c9e" stroke-width="2" />
  <rect x="33" y="28" rx="8" ry="8" width="134" height="39" fill="#1f2a1f" />
  
  <!-- 2 точки на экране -->
  <text x="145" y="58" text-anchor="end" font-family="monospace" font-size="28" fill="#d2fad2" letter-spacing="6">••</text>

  <!-- только два ряда с точками (по 4 кнопки в каждом) -->
  
  <!-- ряд 1 - 4 точки -->
  <rect x="30" y="90" width="30" height="30" fill="#E0E0E0" stroke="#232833" stroke-width="1.5" rx="6" ry="6" />
  <text x="45" y="112" text-anchor="middle" font-family="monospace" font-size="16" fill="#333333">•</text>
  
  <rect x="70" y="90" width="30" height="30" fill="#E0E0E0" stroke="#232833" stroke-width="1.5" rx="6" ry="6" />
  <text x="85" y="112" text-anchor="middle" font-family="monospace" font-size="16" fill="#333333">•</text>
  
  <rect x="110" y="90" width="30" height="30" fill="#E0E0E0" stroke="#232833" stroke-width="1.5" rx="6" ry="6" />
  <text x="125" y="112" text-anchor="middle" font-family="monospace" font-size="16" fill="#333333">•</text>
  
  <rect x="150" y="90" width="30" height="30" fill="#E0E0E0" stroke="#232833" stroke-width="1.5" rx="6" ry="6" />
  <text x="165" y="112" text-anchor="middle" font-family="monospace" font-size="16" fill="#333333">•</text>

  <!-- ряд 2 - 4 точки -->
  <rect x="30" y="130" width="30" height="30" fill="#E0E0E0" stroke="#232833" stroke-width="1.5" rx="6" ry="6" />
  <text x="45" y="152" text-anchor="middle" font-family="monospace" font-size="16" fill="#333333">•</text>
  
  <rect x="70" y="130" width="30" height="30" fill="#E0E0E0" stroke="#232833" stroke-width="1.5" rx="6" ry="6" />
  <text x="85" y="152" text-anchor="middle" font-family="monospace" font-size="16" fill="#333333">•</text>
  
  <rect x="110" y="130" width="30" height="30" fill="#E0E0E0" stroke="#232833" stroke-width="1.5" rx="6" ry="6" />
  <text x="125" y="152" text-anchor="middle" font-family="monospace" font-size="16" fill="#333333">•</text>
  
  <rect x="150" y="130" width="30" height="30" fill="#E0E0E0" stroke="#232833" stroke-width="1.5" rx="6" ry="6" />
  <text x="165" y="152" text-anchor="middle" font-family="monospace" font-size="16" fill="#333333">•</text>

  <!-- маленький бренд -->
  <text x="100" y="190" text-anchor="middle" fill="#7e8aa3" font-size="6" letter-spacing="1">STOLNI</text>
</svg>