<?xml version="1.0" standalone="no"?>
<!DOCTYPE svg PUBLIC "-//W3C//DTD SVG 20010904//EN"
 "http://www.w3.org/TR/2001/REC-SVG-20010904/DTD/svg10.dtd">
<svg version="1.0" xmlns="http://www.w3.org/2000/svg"
 width="236.000000pt" height="250.000000pt" viewBox="0 0 236.000000 250.000000"
 preserveAspectRatio="xMidYMid meet">

<g transform="translate(0.000000,250.000000) scale(0.100000,-0.100000)"
fill="#00bfff58" stroke="none">
<path d="M0 1250 l0 -1250 1180 0 1180 0 0 1250 0 1250 -1180 0 -1180 0 0
-1250z m914 966 c54 -32 76 -61 164 -222 68 -122 72 -134 72 -193 0 -75 -23
-125 -79 -173 -54 -46 -116 -75 -178 -84 -39 -5 -54 -11 -58 -25 -15 -47 126
-366 235 -534 67 -101 185 -251 206 -259 21 -8 47 7 64 38 15 30 106 93 160
112 78 28 165 9 225 -50 23 -23 76 -102 119 -179 75 -132 79 -142 79 -201 0
-108 -56 -181 -183 -239 -127 -59 -300 -36 -470 63 -295 172 -569 514 -720
900 -160 412 -151 790 25 965 40 41 117 87 175 106 41 14 119 1 164 -25z
m-649 -2086 l0 -65 -65 0 -65 0 -3 54 c-5 80 -2 82 70 79 l63 -3 0 -65z"/>
<path d="M205 110 c-4 -6 -15 -8 -26 -5 -11 4 -19 2 -19 -4 0 -6 18 -11 41
-11 27 0 39 4 37 12 -6 16 -25 21 -33 8z"/>
</g>
</svg>
