<?xml version="1.0" encoding="UTF-8"?>
<svg xmlns="http://www.w3.org/2000/svg" viewBox="0 0 1200 600">
  <!-- Полосы -->
  <rect width="1200" height="200" fill="#0099B5"/>
  <rect width="1200" height="200" y="200" fill="#FFF"/>
  <rect width="1200" height="200" y="400" fill="#1EB53A"/>
  
  <!-- Красные линии -->
  <rect width="1200" height="4" y="198" fill="#CE1126"/>
  <rect width="1200" height="4" y="398" fill="#CE1126"/>
  
  <!-- Полумесяц -->
  <circle cx="300" cy="300" r="100" fill="#FFF"/>
  <circle cx="370" cy="300" r="100" fill="#0099B5"/>
  
  <!-- Звезды -->
  <g fill="#FFF">
    <!-- Простые пятиугольники как звезды -->
    <!-- Верхний ряд -->
    <polygon points="500,150 515,165 535,160 525,175 535,190 510,185 485,190 495,175 485,160 505,165"/>
    <polygon points="650,150 665,165 685,160 675,175 685,190 660,185 635,190 645,175 635,160 655,165"/>
    <polygon points="800,150 815,165 835,160 825,175 835,190 810,185 785,190 795,175 785,160 805,165"/>
    
    <!-- Средний ряд -->
    <polygon points="440,300 460,320 485,310 470,325 485,345 455,335 425,345 440,325 425,310 450,320"/>
    <polygon points="590,300 610,320 635,310 620,325 635,345 605,335 575,345 590,325 575,310 600,320"/>
    <polygon points="740,300 760,320 785,310 770,325 785,345 755,335 725,345 740,325 725,310 750,320"/>
    <polygon points="890,300 910,320 935,310 920,325 935,345 905,335 875,345 890,325 875,310 900,320"/>
    
    <!-- Нижний ряд -->
    <polygon points="500,450 515,465 535,460 525,475 535,490 510,485 485,490 495,475 485,460 505,465"/>
    <polygon points="650,450 665,465 685,460 675,475 685,490 660,485 635,490 645,475 635,460 655,465"/>
    <polygon points="800,450 815,465 835,460 825,475 835,490 810,485 785,490 795,475 785,460 805,465"/>
  </g>
</svg>