<svg width="50" height="50" viewBox="0 0 24 24" fill="none" xmlns="http://www.w3.org/2000/svg">
    <circle cx="12" cy="12" r="12" fill="#25D366"/>
    <path d="M17 7C15.3 5.5 13 4.5 10.5 4.5C6 4.5 2.5 8 2.5 12.5C2.5 14.5 3 16.2 4 17.5L3 21L6.5 20C7.8 20.9 9.3 21.5 11 21.5C15.5 21.5 19 18 19 13.5C19 11.5 18.3 9.5 17 7Z" fill="white"/>
    <path d="M15.8 14.2C15.6 14.6 15 14.8 14.4 14.6C13.9 14.5 13.1 14.2 11.8 13.2C10.8 12.4 10.1 11.5 9.8 10.9C9.6 10.5 9.7 10.1 9.9 9.9C10.1 9.7 10.3 9.4 10.5 9.2C10.7 9 10.8 8.8 10.9 8.6C11 8.4 11 8.2 10.8 8.1C10.7 8 10.3 7.5 10.1 7.3C9.8 7 9.5 7 9.3 7C9.1 7 8.9 7 8.7 7C8.5 7 8.3 7 8.1 7.2C7.9 7.4 7.5 7.8 7.5 8.6C7.5 9.4 8 10.2 8.2 10.5C8.4 10.8 10.1 13.1 12.6 14.1C13.5 14.4 14.2 14.6 14.8 14.6C15.3 14.6 15.7 14.4 15.9 14.2C16.2 13.9 16.3 13.6 16.4 13.4C16.5 13.2 16.6 13 16.5 12.8C16.4 12.6 16.3 12.6 16.1 12.5C15.8 12.3 15.1 12 14.9 11.9C14.7 11.8 14.5 11.9 14.4 11.9C14.3 12 14 12.1 13.8 12.3C13.6 12.5 13.4 12.6 13.3 12.6C13.2 12.6 13 12.6 12.9 12.5C12.7 12.4 12.2 12.2 11.8 11.8C11.4 11.4 11.1 10.9 10.9 10.8C10.8 10.7 10.6 10.8 10.5 10.8C10.4 10.8 10 10.8 9.6 10.6C9.2 10.4 8.8 10.3 8.5 10.1C8.1 9.9 7.9 9.7 7.8 9.5C7.7 9.3 7.8 9.2 7.9 9.1C8 9 8.2 8.8 8.3 8.7C8.4 8.6 8.5 8.4 8.5 8.3C8.5 8.2 8.5 8.1 8.4 8.1C8.3 8.1 8 8.2 7.8 8.3C7.6 8.4 7.4 8.4 7.3 8.4C7.2 8.4 7 8.3 6.9 8.2C6.8 8.1 6.6 7.9 6.6 7.5C6.6 7.1 6.8 6.8 6.9 6.6C7 6.4 7.2 6.2 7.5 6.2C7.6 6.2 7.7 6.2 7.8 6.2C7.9 6.2 8 6.1 8.2 6.1C8.4 6.1 8.8 6 9.1 6.3C9.4 6.6 9.8 7.2 9.9 7.4C10 7.6 10.2 7.6 10.3 7.6C10.4 7.6 10.6 7.6 10.7 7.5C10.8 7.4 10.9 7.3 11 7.2C11.1 7.1 11.2 7 11.3 7C11.4 7 11.6 7.1 11.7 7.2C11.8 7.3 12.2 7.7 12.6 8C13 8.3 13.4 8.5 13.5 8.6C13.6 8.7 13.7 8.7 13.8 8.7C13.9 8.7 14.1 8.6 14.2 8.5C14.3 8.4 14.4 8.3 14.5 8.2C14.6 8.1 14.7 8 14.8 8C14.9 8 15 8 15.1 8.1C15.2 8.2 15.5 8.5 15.6 8.7C15.7 8.9 15.8 9.1 15.8 9.3C15.8 9.5 15.8 9.7 15.7 9.9C15.6 10.1 15.5 10.3 15.3 10.5C15.1 10.7 14.9 10.9 14.7 11.1C14.5 11.3 14.3 11.5 14.1 11.6C13.9 11.7 13.7 11.8 13.5 11.9C13.3 12 13.1 12.1 12.9 12.1C12.7 12.1 12.5 12 12.4 11.9C12.3 11.8 12.1 11.6 12 11.5C11.9 11.4 11.7 11.2 11.6 11.1C11.5 11 11.3 10.9 11.2 10.8C11.1 10.7 10.9 10.6 10.8 10.5C10.7 10.4 10.5 10.3 10.4 10.2C10.3 10.1 10.1 10 10 9.9C9.9 9.8 9.7 9.7 9.6 9.6C9.5 9.5 9.3 9.4 9.2 9.3C9.1 9.2 8.9 9.1 8.8 9C8.7 8.9 8.5 8.8 8.4 8.7C8.3 8.6 8.1 8.5 8 8.4C7.9 8.3 7.7 8.2 7.6 8.1C7.5 8 7.3 7.9 7.2 7.8C7.1 7.7 6.9 7.6 6.8 7.5C6.7 7.4 6.5 7.3 6.4 7.2C6.3 7.1 6.1 7 6 6.9" fill="#25D366"/>
</svg>